# xmcd
#
# Track frame offsets:
#	150
#	13362
#	26205
#	38695
#	51510
#	64882
#	76957
#	90712
#	105770
#	117572
#	130872
#	143060
#	155220
#	168637
#	181120
#	195170
#	206940
#	219610
#	230537
#	242990
#	256605
#	270977
#
# Disc length: 3802 seconds
# Revision: 0
# Processed by: cddbd v1.5.2PL0 Copyright (c) Steve Scherf et al.
# Submitted via: dBpowerAMP V12.0
#
DISCID=3b0ed816
DTITLE=Lillian "Lil" Green - Complete Recorded Works (1946-1951)
DYEAR=1998
DGENRE=Blues
TTITLE0=It's So Bad With My Man and Me
TTITLE1=Blow Top Blues
TTITLE2=How Come You Do Me Like You Do?
TTITLE3=That Old Feeling
TTITLE4=Last Go Round Blues
TTITLE5=No Good Man
TTITLE6=I Want a Good Man Bad
TTITLE7=You've Been a Good Old Wagon
TTITLE8=I Want a Man
TTITLE9=Lonely Woman
TTITLE10=Take Me Back to Little Rock
TTITLE11=Aggravatin' Papa
TTITLE12=Daddy Daddy Blues
TTITLE13=Outside of That
TTITLE14=I Gotta Have It
TTITLE15=Walkin' and Talkin'
TTITLE16=Rock Me Baby
TTITLE17=Them There Eyes
TTITLE18=Running Around in Circles
TTITLE19=My Be Bop Daddy
TTITLE20=Every Time
TTITLE21=I've Got That Feelin'
EXTD=
EXTT0=
EXTT1=
EXTT2=
EXTT3=
EXTT4=
EXTT5=
EXTT6=
EXTT7=
EXTT8=
EXTT9=
EXTT10=
EXTT11=
EXTT12=
EXTT13=
EXTT14=
EXTT15=
EXTT16=
EXTT17=
EXTT18=
EXTT19=
EXTT20=
EXTT21=
PLAYORDER=
